<svg class="icon" viewBox="0 0 1024 1024" xmlns="http://www.w3.org/2000/svg" width="48" height="48"><defs><style/></defs><path d="M511.504 38.993c-262.446 0-475.197 212.752-475.197 475.192 0 262.446 212.75 475.196 475.197 475.196 262.44 0 475.191-212.75 475.191-475.196 0-262.44-212.75-475.192-475.19-475.192zm209.628 380.991v73.71c0 18.036-10.33 33.778-25.355 41.613V679.39h-37.874l-13.919-91.19-13.89 91.188h-34.789v-130.09c14.238-13.913 22.663-33.17 22.663-53.717v-80.227c0-15.097-4.475-29.167-12.196-40.964a46.261 46.261 0 0 1 10.824-1.28h57.683c25.767-.001 46.853 21.103 46.853 46.873zm-77.05-154.568c27.26 0 49.352 22.092 49.352 49.353 0 27.256-22.092 49.37-49.353 49.37-27.274 0-49.364-22.114-49.364-49.37-.001-27.262 22.09-49.353 49.364-49.353zm-131.77-18.26c29.679 0 53.712 24.034 53.712 53.717 0 29.66-24.033 53.711-53.712 53.711-29.661 0-53.716-24.05-53.716-53.711 0-29.683 24.056-53.717 53.716-53.717zm-83.87 168.198c0-28.042 22.968-50.987 51.01-50.987h62.75c28.055 0 51.005 22.945 51.005 50.987v80.227c0 19.71-11.34 36.907-27.831 45.385V697.65h-37.838l-15.154-99.234-15.134 99.239h-41.21V540.852c-16.355-8.519-27.6-25.637-27.6-45.27v-80.228zm-50.266-149.938c27.26 0 49.37 22.092 49.37 49.353 0 27.256-22.11 49.37-49.37 49.37-27.257 0-49.353-22.114-49.353-49.37 0-27.262 22.096-49.353 49.353-49.353zm-77.047 154.568c0-25.77 21.082-46.874 46.852-46.874h57.68c3.72 0 7.34.443 10.827 1.28a74.56 74.56 0 0 0-12.199 40.964v80.227c0 20.547 8.425 39.804 22.667 53.718V679.39H392.17l-13.918-91.188-13.914 91.188h-37.856V535.308c-15.02-7.835-25.355-23.577-25.355-41.613v-73.71zm210.366 361.237c-149.958 0-271.533-37.495-271.533-83.739 0-19.462 21.52-37.356 57.62-51.582-8.652 6.025-13.377 12.506-13.377 19.253 0 31.415 101.748 56.844 227.29 56.844 125.54 0 227.306-25.429 227.306-56.844 0-6.747-4.727-13.228-13.402-19.253 36.104 14.226 57.642 32.12 57.642 51.582 0 46.244-121.572 83.739-271.546 83.739z" fill="#4274e5"/></svg>