<svg class="icon" viewBox="0 0 1024 1024" xmlns="http://www.w3.org/2000/svg" width="48" height="48"><defs><style/></defs><path d="M512 46.537C254.931 46.537 46.537 254.932 46.537 512S254.93 977.463 512 977.463c257.068 0 465.463-208.395 465.463-465.463S769.068 46.537 512 46.537zM317.222 243.44h389.554c14.67 0 26.562 10.024 26.562 22.387 0 12.364-11.892 22.376-26.562 22.376H317.222c-14.665 0-26.561-10.011-26.561-22.376 0-12.362 11.896-22.387 26.56-22.387zm416.116 492.362c0 24.439-17.62 44.755-44.271 44.755H334.925c-20.43 0-44.264-17.528-44.264-44.755V556.76c3.07 11.597 6.305 22.386 22.13 22.386 13.067 0 20.6-14.826 22.134-22.386v134.28h354.142V556.764c5.273 11.614 15.781 21.767 22.141 22.381 12.84 1.2 16.43-10.383 22.13-22.381v179.04zm-5.532-196.014c-39.734 0-71.934-33.166-71.934-74.088 0 40.922-32.21 74.088-71.938 74.088-39.73 0-71.934-33.166-71.934-74.088 0 40.922-32.212 74.088-71.938 74.088-39.73 0-71.935-33.166-71.935-74.088 0 40.922-32.2 74.088-71.934 74.088-39.73 0-71.934-33.166-71.934-74.088l44.264-132.743h486.95L799.739 465.7c.001 40.922-32.203 74.088-71.933 74.088z" fill="#97c8f0"/></svg>