<svg class="icon" viewBox="0 0 1024 1024" xmlns="http://www.w3.org/2000/svg" width="48" height="48"><defs><style/></defs><path d="M991.997 512c0 265.095-214.899 480-479.994 480-265.101 0-480-214.905-480-480s214.899-480 480-480c265.095 0 479.994 214.905 479.994 480zm-128.993 7.573v-17.244c0-48.731-87.842-61.925-93.35-62.704-5.932-21.554-14.587-41.979-25.42-60.987 12.338-16.601 54.86-78.687 24.205-109.354l-15.726-16.6c-26.212-26.2-93.144 14.716-109.402 25.307-19.215-10.88-39.865-19.54-61.683-25.443-3.496-20.792-18.767-93.509-61.898-93.509h-17.26c-37.015 0-58.272 75.191-63.013 94.029-21.524 6.009-41.885 14.692-60.84 25.561-14.959-11.123-79.081-55.439-110.375-24.145l-16.593 13.962c-27.274 27.284 18.052 99.205 26.31 111.79-10.484 18.72-18.872 38.75-24.675 59.89-18.082 2.887-95.28 17.794-95.28 62.203v17.244c0 38.484 80.958 59.867 95.735 63.45 5.872 20.98 14.32 40.85 24.828 59.41-8.706 13.66-52.256 85.262-25.224 112.306l15.72 13.076c35.557 35.573 109.873-22.858 109.873-22.858l-3.47-3.677a267.25 267.25 0 0 0 63.596 27.213c3.707 15.167 25.07 95.576 63.408 95.576h17.26c50.304 0 62.772-93.852 62.772-93.852l-4.605-.148c22.792-5.826 44.399-14.604 64.44-25.827 15.697 10.455 81.536 51.649 107.8 25.374l17.504-17.487c35.055-35.065-22.001-106.826-23.614-108.81 10.857-18.968 19.54-39.346 25.52-60.863 19.619-4.976 93.457-26.158 93.457-62.883zm-154.113-7.916c0 109.519-88.768 198.305-198.298 198.305-109.5 0-198.293-88.786-198.293-198.305 0-109.525 88.792-198.293 198.293-198.293 109.53 0 198.298 88.768 198.298 198.293zm-66.106 0c0-73.012-59.168-132.199-132.192-132.199-73.02 0-132.188 59.187-132.188 132.199 0 73.007 59.169 132.194 132.188 132.194 73.024 0 132.192-59.187 132.192-132.194zm-66.08 0" fill="#999"/></svg>