<svg class="icon" viewBox="0 0 1024 1024" xmlns="http://www.w3.org/2000/svg" width="48" height="48"><defs><style/></defs><path d="M512 35.772C248.764 35.772 35.772 249.31 35.772 512c0 263.236 213.538 476.228 476.228 476.228S988.228 774.69 988.228 512c0-263.236-212.992-476.228-476.228-476.228zM377.651 304.469c94.481 0 170.94 38.23 170.94 85.743s-76.459 85.743-170.94 85.743-170.94-38.23-170.94-85.743 76.46-85.743 170.94-85.743zm293.274 427.623c-62.26 0-116.873-16.384-146.364-41.506-30.037 24.576-84.65 41.506-146.364 41.506-94.48 0-170.94-38.23-170.94-85.743 0-11.469 4.37-22.392 12.562-32.222 25.122 31.13 86.835 53.521 158.378 53.521 48.06 0 91.205-9.83 122.334-25.668 1.092-9.83 5.462-19.115 12.015-27.853 25.122 31.13 86.835 53.521 158.379 53.521s133.256-21.845 158.378-53.521c8.192 9.83 12.562 20.753 12.562 32.222 0 47.513-76.46 85.743-170.94 85.743zm0-85.743c-87.382 0-159.471-32.768-169.848-74.82-1.092 3.276-1.092 7.1-1.092 10.922 0 10.923 4.37 21.846 12.015 31.676-31.13 19.66-79.735 32.768-134.349 32.768-94.48 0-170.94-38.23-170.94-85.743 0-11.469 4.37-22.391 12.562-32.222 25.122 31.13 86.835 53.521 158.378 53.521 48.06 0 91.204-9.83 122.334-25.668 1.092-10.377 5.461-20.207 13.653-28.945-31.13 20.207-80.281 33.314-135.987 33.314-94.48 0-170.94-38.23-170.94-85.743 0-11.469 4.37-22.391 12.562-32.222 25.122 31.13 86.835 53.521 158.378 53.521s133.257-21.845 158.379-53.52c8.192 9.83 12.56 20.752 12.56 32.221 0 12.015-4.914 23.484-13.652 33.314 31.13-20.207 80.281-33.314 135.987-33.314 94.48 0 170.94 38.23 170.94 85.743s-76.46 85.197-170.94 85.197z" fill="#f74545"/></svg>