<svg class="icon" viewBox="0 0 1024 1024" xmlns="http://www.w3.org/2000/svg" width="48" height="48"><defs><style/></defs><path d="M509.74 987.865c-260.574 0-471.813-213.216-471.813-476.236 0-263.018 211.239-476.236 471.814-476.236S981.554 248.61 981.554 511.629c0 263.02-211.239 476.236-471.813 476.236zm30.744-483.843c62.593-10.118 110.256-65.36 110.256-132.131 0-73.923-58.628-133.843-130.967-133.843-72.337 0-130.967 59.919-130.967 133.843 0 66.608 47.819 122.011 110.256 132.131C382.046 514.082 288.9 624.416 278.854 744.68h481.853c-9.977-120.316-103.16-230.595-220.223-240.658z" fill="#e39e98"/></svg>