<svg class="icon" viewBox="0 0 1024 1024" xmlns="http://www.w3.org/2000/svg" width="48" height="48"><defs><style/></defs><path d="M505.344 35.328c-261.12 0-472.576 211.456-472.576 472.576S244.224 980.48 505.344 980.48 977.92 768.512 977.92 507.904 766.464 35.328 505.344 35.328zm-153.088 281.6c0-98.304 125.952-138.752 125.952-138.752 18.432-6.144 35.84-8.192 53.76 0 0 0 125.952 46.08 125.952 138.752 0 14.848 19.456 11.264 35.328 57.856h-376.32c8.704-46.592 35.328-43.52 35.328-57.856zm419.84 450.56c0 40.96-106.496 75.776-106.496 75.776l-44.544-5.632h-8.704v-1.024c-20.48-2.56-71.68-7.68-107.008-7.68-34.816 0-86.528 5.632-107.008 7.68v1.024l-11.264.512-41.984 5.12S238.08 808.448 238.08 768v-20.48c0-37.888 49.152-75.776 107.008-105.472 2.56-1.536 37.376 195.072 37.376 195.072h4.096l2.56-.512s3.072-.512 8.704-1.024c-2.048-15.36-29.184-202.24-26.624-203.264 15.872-7.168 26.624-14.336 42.496-19.968 5.632-2.048 33.792-17.408 17.92-58.368-36.352-36.864-60.928-72.704-60.928-153.088H640c0 79.872-25.088 115.712-61.44 152.576-15.36 46.08 9.216 57.344 12.8 58.368 15.36 5.12 31.232 13.312 46.592 19.968 3.584 1.536-24.064 187.904-26.624 203.264 3.072.512 5.632.512 7.168 1.024h8.704S660.48 640 663.552 641.536c58.88 28.672 107.52 66.56 107.52 105.472l1.024 20.48z" fill="#ffce39"/></svg>