<svg class="icon" viewBox="0 0 1024 1024" xmlns="http://www.w3.org/2000/svg" width="48" height="48"><defs><style/></defs><path d="M512 32C246.901 32 32 246.902 32 512s214.902 480 480 480 480-214.904 480-480c-.001-265.098-214.906-480-480-480zm-58.608 760.989H290.3c-11.353 0-21.942-2.182-31.767-6.549-9.825-4.367-18.448-10.261-25.872-17.685-7.423-7.422-13.318-16.047-17.684-25.872-4.367-9.825-6.55-20.414-6.55-31.767V303.06c0-10.917 2.184-21.396 6.55-31.439s10.26-18.668 17.684-25.872c7.424-7.205 16.047-12.99 25.872-17.356 9.825-4.368 20.414-6.55 31.767-6.55h448.667c11.35 0 21.94 2.182 31.766 6.55 9.824 4.366 18.449 10.151 25.872 17.356 7.423 7.206 13.318 15.83 17.684 25.872s6.549 20.522 6.549 31.439v161.125l-81.871.656v-39.299c0-11.353-3.931-20.96-11.79-28.819-7.86-7.859-17.468-11.79-28.82-11.79H330.91c-11.352 0-20.96 3.931-28.818 11.79-7.86 7.86-11.79 17.466-11.79 28.82v244.965c0 11.352 3.93 20.96 11.79 28.818 7.86 7.86 17.466 11.79 28.818 11.79h122.483v81.874zM842.454 675.09c-9.169 7.86-20.087 16.704-32.75 26.528a2951.259 2951.259 0 0 0-38.97 30.784 4200.13 4200.13 0 0 1-39.626 31.44 8680.612 8680.612 0 0 0-35.37 27.837c-11.354 8.732-20.633 12.009-27.836 9.825-7.205-2.183-10.808-8.952-10.808-20.303.436-6.987.436-15.61 0-25.873-.438-10.261-.656-19.104-.656-26.526 0-8.297-2.29-13.428-6.876-15.393-4.585-1.963-11.244-2.946-19.977-2.946-9.169 0-17.685-.11-25.544-.328a828.584 828.584 0 0 0-22.925-.327c-7.424 0-15.174-.11-23.253-.327s-16.92-.328-26.525-.328c-3.933 0-8.189-.435-12.775-1.31-4.583-.872-8.733-2.402-12.444-4.584-3.714-2.184-6.768-5.459-9.17-9.825-2.401-4.368-3.603-10.263-3.603-17.685v-51.745c0-13.535 3.275-22.596 9.827-27.182 6.55-4.586 16.81-6.877 30.784-6.877 13.097.436 26.197.653 39.299.653 13.098 0 28.382.22 45.847.656 12.665 0 22.488-1.093 29.475-3.276 6.987-2.183 10.48-7.642 10.48-16.375-.436-6.114-.328-13.645.328-22.596.654-8.952.982-16.92.982-23.908 0-11.351 3.056-18.45 9.17-21.287 6.112-2.838 13.973-.545 23.577 6.878a16169.762 16169.762 0 0 0 33.734 27.51 9485.963 9485.963 0 0 1 39.625 32.42 4415.931 4415.931 0 0 0 40.284 32.75c13.317 10.699 24.999 20.196 35.04 28.493 9.17 7.859 13.864 15.174 14.083 21.94.219 6.77-4.259 13.866-13.427 21.287z" fill="#f09e4e"/></svg>