<svg xmlns="http://www.w3.org/2000/svg" width="890.079" height="890.078" viewBox="0 0 890.079 890.078"><circle cx="444.971" cy="444.972" r="400.45" fill="#fff" stroke="#000" stroke-miterlimit="10"/><path d="M445.04 89.022c-196.626 0-356.02 159.393-356.02 356.02 0 196.621 159.394 356.014 356.02 356.014 196.621 0 356.015-159.393 356.015-356.014 0-196.627-159.394-356.02-356.015-356.02zm230.062 301.291c0 19.362-15.702 35.066-35.064 35.066-19.368 0-35.07-15.7-35.07-35.066v-55.608l-68.36 68.364c45.1 68.078 37.663 160.699-22.316 220.688-68.469 68.461-179.486 68.461-247.962 0-68.472-68.479-68.472-179.498 0-247.968 59.98-59.977 152.607-67.413 220.685-22.31l68.363-68.367h-55.611c-19.366 0-35.063-15.696-35.063-35.063 0-19.37 15.696-35.073 35.063-35.073h140.272c19.362 0 35.064 15.703 35.064 35.073v140.264h-.001z" fill-rule="evenodd" clip-rule="evenodd" fill="#0acdff"/><path d="M315.923 425.386c-41.087 41.082-41.087 107.691 0 148.769 41.082 41.082 107.693 41.082 148.779 0 41.08-41.078 41.08-107.688 0-148.769-41.086-41.083-107.697-41.083-148.779 0z" fill-rule="evenodd" clip-rule="evenodd" fill="#0acdff"/></svg>