<svg xmlns="http://www.w3.org/2000/svg" width="890.079" height="890.078" viewBox="0 0 890.079 890.078"><circle cx="444.971" cy="444.972" r="400.45" fill="#fff" stroke="#000" stroke-miterlimit="10"/><path d="M498.512 286.359c-58.095 0-105.194 47.099-105.196 105.195.003 58.102 47.104 105.204 105.204 105.204 58.102.004 105.2-47.097 105.195-105.195 0-58.101-47.102-105.201-105.203-105.204z" fill-rule="evenodd" clip-rule="evenodd" fill="#d32279"/><path d="M445.041 89.022c-196.626 0-356.019 159.393-356.019 356.02 0 196.62 159.393 356.014 356.019 356.014 196.622 0 356.014-159.394 356.014-356.014 0-196.627-159.393-356.02-356.014-356.02zM622.497 515.54c-60.095 60.096-152.956 67.44-221.069 22.052a50.411 50.411 0 0 1-3.474 3.869l-28.452 28.452 27.731 27.731c14.359 14.358 14.954 37.043 1.33 50.667-13.625 13.625-36.309 13.029-50.667-1.329l-27.732-27.732-40.864 40.865c-16.257 16.256-40.48 18.392-54.104 4.768-13.625-13.624-11.49-37.848 4.766-54.104l40.865-40.865-27.731-27.73c-14.359-14.359-14.955-37.043-1.33-50.668 13.623-13.623 36.308-13.028 50.667 1.33l27.731 27.73 28.452-28.451a49.837 49.837 0 0 1 3.871-3.474c-45.39-68.114-38.045-160.976 22.05-221.07 68.472-68.473 179.488-68.473 247.96 0 68.473 68.471 68.473 179.487 0 247.959z" fill-rule="evenodd" clip-rule="evenodd" fill="#d32279"/></svg>